<?xml version="1.0" encoding="UTF-8"?>
<svg xmlns="http://www.w3.org/2000/svg" viewBox="0 0 1200 630" width="1200" height="630">
  <defs>
    <linearGradient id="g91319" x1="98.06308479691593%" y1="36.21813220915001%" x2="1.9369152030840695%" y2="63.78186779084999%">
      <stop offset="0%" stop-color="#D97706"/>
      <stop offset="100%" stop-color="#B45309"/>
    </linearGradient>
  </defs>
  <rect width="1200" height="630" fill="url(#g91319)"/>
  <polygon points="427.435708809644,233.5262128384784 497.435708809644,193.5262128384784 567.435708809644,233.5262128384784 497.435708809644,273.5262128384784" fill="rgba(255,255,255,0.08)" stroke="rgba(255,255,255,0.15)" stroke-width="2"/><line x1="557.435708809644" y1="238.5262128384784" x2="557.435708809644" y2="293.5262128384784" stroke="rgba(255,255,255,0.12)" stroke-width="2"/><path d="M 820.1951133087277 354.5141148706898 C 790.1951133087277 344.5141148706898 740.1951133087277 349.5141148706898 730.1951133087277 284.5141148706898 L 820.1951133087277 294.5141148706898 L 910.1951133087277 284.5141148706898 C 900.1951133087277 349.5141148706898 850.1951133087277 344.5141148706898 820.1951133087277 354.5141148706898 Z" fill="rgba(255,255,255,0.06)" stroke="rgba(255,255,255,0.12)" stroke-width="1.5"/><line x1="820.1951133087277" y1="354.5141148706898" x2="820.1951133087277" y2="294.5141148706898" stroke="rgba(255,255,255,0.12)" stroke-width="1.5"/><rect x="248.00582407042384" y="392.2488556057215" width="8" height="100" rx="1" fill="rgba(255,255,255,0.1)" transform="rotate(44.8202834604308 248.00582407042384 392.2488556057215)"/><circle cx="1044.3186364718713" cy="180.82615396007895" r="30" fill="none" stroke="rgba(255,255,255,0.12)" stroke-width="2"/><line x1="1034.3186364718713" y1="210.82615396007895" x2="1054.3186364718713" y2="210.82615396007895" stroke="rgba(255,255,255,0.1)" stroke-width="2"/><line x1="1036.3186364718713" y1="217.82615396007895" x2="1052.3186364718713" y2="217.82615396007895" stroke="rgba(255,255,255,0.1)" stroke-width="2"/><circle cx="1128.7766750436276" cy="176.81113313417882" r="4.555306893773377" fill="rgba(255,255,255,0.08077770981937647)"/><circle cx="174.7657019412145" cy="62.470271587371826" r="4.648849756456912" fill="rgba(255,255,255,0.10774977337568997)"/><circle cx="413.91406094189733" cy="105.75619922485203" r="2.7230517799034715" fill="rgba(255,255,255,0.07785607790574431)"/><circle cx="1074.7168661095202" cy="302.210205453448" r="3.662496292963624" fill="rgba(255,255,255,0.06881943788379431)"/><circle cx="809.956240421161" cy="551.6816844651476" r="4.720689334906638" fill="rgba(255,255,255,0.09067627584561705)"/><circle cx="147.05759044736624" cy="186.3150871428661" r="5.949542868882418" fill="rgba(255,255,255,0.07934747146442533)"/><circle cx="485.2363597135991" cy="385.00681816600263" r="3.4739469969645143" fill="rgba(255,255,255,0.07081934818997979)"/><circle cx="775.00079148449" cy="221.355135361664" r="2.1788980616256595" fill="rgba(255,255,255,0.05374813651666045)"/><circle cx="1001.9434882793576" cy="480.974005991593" r="2.3314782259985805" fill="rgba(255,255,255,0.05547989349812269)"/><circle cx="221.7053139116615" cy="411.29392315866426" r="3.746329240500927" fill="rgba(255,255,255,0.11720812227576971)"/><circle cx="362.09195281844586" cy="151.18941421154886" r="5.133676107041538" fill="rgba(255,255,255,0.0762789311259985)"/><circle cx="686.2674853531644" cy="505.2759822877124" r="3.892993673682213" fill="rgba(255,255,255,0.068437405731529)"/><circle cx="272.8519958909601" cy="227.0220955996774" r="2.5681590298190713" fill="rgba(255,255,255,0.05975592954084277)"/><circle cx="602.4261293001473" cy="313.4450499736704" r="5.749929782003164" fill="rgba(255,255,255,0.0667805021442473)"/><circle cx="334.6962618874386" cy="236.81583064142615" r="2.6177145335823298" fill="rgba(255,255,255,0.04563412329182029)"/>
  <circle cx="1150.4004003480077" cy="5.759938771370798" r="2.637569315265864" fill="rgba(255,255,255,0.047415059753693645)"/><circle cx="696.0112276487052" cy="235.70697854971513" r="2.4833123655989766" fill="rgba(255,255,255,0.05875647878972813)"/><circle cx="841.4086947217584" cy="181.4004160067998" r="2.582656796555966" fill="rgba(255,255,255,0.07991823770105838)"/><circle cx="862.074329238385" cy="491.06184204574674" r="1.5727814515121281" fill="rgba(255,255,255,0.07888506048591808)"/><circle cx="762.6651118509471" cy="167.66889950959012" r="2.263109192252159" fill="rgba(255,255,255,0.07223510405281558)"/><circle cx="612.2406788170338" cy="553.6191212316044" r="1.248201579786837" fill="rgba(255,255,255,0.033687353443820026)"/><circle cx="148.06845216080546" cy="166.82723231613636" r="1.102976662106812" fill="rgba(255,255,255,0.030577234814409167)"/><circle cx="273.92074204981327" cy="425.9784639417194" r="2.7853022846393287" fill="rgba(255,255,255,0.07252803622512147)"/><circle cx="900.4279660061002" cy="58.02439481718466" r="2.965050032362342" fill="rgba(255,255,255,0.04375934439711272)"/><circle cx="166.8876964598894" cy="340.3978291573003" r="1.3135551242157817" fill="rgba(255,255,255,0.035286976683419194)"/><circle cx="510.32695630565286" cy="524.3483702209778" r="2.1305595724843442" fill="rgba(255,255,255,0.07106276268139482)"/><circle cx="1047.9039690457284" cy="9.681297799106687" r="2.168870142661035" fill="rgba(255,255,255,0.048343779013957824)"/><circle cx="710.0261910818517" cy="524.0761440480128" r="2.077703478746116" fill="rgba(255,255,255,0.045093887399416416)"/><circle cx="581.7323064431548" cy="550.4205707414076" r="2.8838579528965056" fill="rgba(255,255,255,0.05646228724624962)"/><circle cx="1005.5108215659857" cy="497.335539534688" r="2.7409913260489702" fill="rgba(255,255,255,0.0318171057337895)"/><circle cx="121.09668077901006" cy="209.78988682385534" r="2.3219507075846195" fill="rgba(255,255,255,0.06824460115283729)"/><circle cx="1081.394067965448" cy="477.8929120581597" r="2.6153908958658576" fill="rgba(255,255,255,0.0491936087445356)"/><circle cx="133.2818616181612" cy="123.42629498569295" r="2.762832817155868" fill="rgba(255,255,255,0.06719716294435785)"/><circle cx="866.6767252609134" cy="33.05071011884138" r="1.5418876758776605" fill="rgba(255,255,255,0.04841553309932351)"/><circle cx="1135.381925292313" cy="418.7425229419023" r="1.257230024319142" fill="rgba(255,255,255,0.057403346821665764)"/>
  <text x="600" y="335" font-family="system-ui, -apple-system, 'Segoe UI', sans-serif" font-size="68" font-weight="700" fill="rgba(0,0,0,0.15)" text-anchor="middle" letter-spacing="1">Abitur</text>
  <text x="600" y="332" font-family="system-ui, -apple-system, 'Segoe UI', sans-serif" font-size="68" font-weight="700" fill="white" text-anchor="middle" letter-spacing="1">Abitur</text>
  <g transform="translate(1140, 575)">
    <rect x="0" y="0" width="40" height="40" rx="8" fill="rgba(255,255,255,0.15)"/>
    <text x="20" y="29" font-family="sans-serif" font-weight="bold" font-size="24" fill="rgba(255,255,255,0.6)" text-anchor="middle">K</text>
  </g>
</svg>